PathFileType	4	(X/Y/Z)	/Users/itak/Documents/Research/Walk-IL/dataset/trc/00400_00012.trc
DataRate	CameraRate	NumFrames	NumMarkers	Units	OrigDataRate	OrigDataStartFrame	OrigNumFrames
100.000000	100.000000	4	53	mm	100.000000	162	649
Frame#	Time	RPSI			LPSI			L3			STRN			T10			C7			CLAV			RBAK			LBAK			LSHO			LUPA			LAEL			LAOL			LWTS			LWPS			LFRA			LIFD			LHPS			LHTS			RSHO			RUPA			RAEL			RAOL			RWTS			RWPS			RFRA			RIFD			RHTS			RHPS			RBHD			LFHD			RFHD			LBHD			LHIP			RHIP			RASI			LASI			LKNE			LTHI			LANK			LTIP			LTOE			LMT1			LMT5			LHEE			RKNE			RTHI			RANK			RTIP			RTOE			RMT1			RMT5			RHEE			
		X1	Y1	Z1	X2	Y2	Z2	X3	Y3	Z3	X4	Y4	Z4	X5	Y5	Z5	X6	Y6	Z6	X7	Y7	Z7	X8	Y8	Z8	X9	Y9	Z9	X10	Y10	Z10	X11	Y11	Z11	X12	Y12	Z12	X13	Y13	Z13	X14	Y14	Z14	X15	Y15	Z15	X16	Y16	Z16	X17	Y17	Z17	X18	Y18	Z18	X19	Y19	Z19	X20	Y20	Z20	X21	Y21	Z21	X22	Y22	Z22	X23	Y23	Z23	X24	Y24	Z24	X25	Y25	Z25	X26	Y26	Z26	X27	Y27	Z27	X28	Y28	Z28	X29	Y29	Z29	X30	Y30	Z30	X31	Y31	Z31	X32	Y32	Z32	X33	Y33	Z33	X34	Y34	Z34	X35	Y35	Z35	X36	Y36	Z36	X37	Y37	Z37	X38	Y38	Z38	X39	Y39	Z39	X40	Y40	Z40	X41	Y41	Z41	X42	Y42	Z42	X43	Y43	Z43	X44	Y44	Z44	X45	Y45	Z45	X46	Y46	Z46	X47	Y47	Z47	X48	Y48	Z48	X49	Y49	Z49	X50	Y50	Z50	X51	Y51	Z51	X52	Y52	Z52	X53	Y53	Z53	

163	1.62	614.8421630859375	976.4495239257812	1089.729125976562	545.6405639648438	962.9676513671875	976.0374755859375	580.4032592773438	1051.818359375	1026.486328125	791.0643310546875	1197.88037109375	912.2310180664062	578.2299194335938	1151.115234375	1020.137390136719	603.3641357421875	1400.716796875	989.45849609375	744.9476928710938	1318.778442382812	930.955078125	588.1151123046875	1258.939208984375	1072.713134765625	542.0569458007812	1363.508422851562	906.49267578125	598.7349243164062	1376.912963867188	824.50146484375	537.0553588867188	1263.235229492188	779.4509887695312	534.8693237304688	1067.852294921875	748.628662109375	511.2250366210938	1044.6875	828.6007690429688	693.9140014648438	905.9962768554688	729.7638549804688	633.7863159179688	877.7477416992188	680.8250122070312	567.9039916992188	977.46142578125	720.9738159179688	761.1455078125	745.6021728515625	680.8064575195312	679.931640625	805.635498046875	667.6035766601562	738.1773681640625	828.4505004882812	685.0127563476562	719.7144165039062	1382.172973632812	1108.604858398438	724.0031127929688	1323.300659179688	1168.826538085938	708.4653930664062	1068.909545898438	1235.581787109375	663.5132446289062	1056.131225585938	1155.277099609375	787.6019287109375	832.3836669921875	1192.646240234375	771.245849609375	834.7982788085938	1264.308471679688	730.72412109375	1003.362854003906	1251.9033203125	759.5671997070312	662.3167724609375	1225.966552734375	793.0154418945312	727.3562622070312	1220.061279296875	760.8978881835938	749.190185546875	1276.949462890625	693.9767456054688	1589.665893554688	1041.952392578125	698.3042602539062	1587.116333007812	841.4249877929688	774.7405395507812	1606.442749023438	935.2823486328125	579.8690185546875	1561.176879882812	928.9038696289062	567.6322631835938	941.9776611328125	835.9044189453125	745.0586547851562	962.6897583007812	1146.546752929688	830.1039428710938	965.0326538085938	1032.619384765625	685.6215209960938	938.757568359375	814.595458984375	671.6099243164062	450.1821899414062	906.6134033203125	642.9006958007812	587.8232421875	872.879638671875	614.9517211914062	34.15171813964844	1052.451049804688	641.5485229492188	223.7257690429688	972.7596435546875	837.7657470703125	38.93634796142578	1038.1162109375	773.6408081054688	42.02359008789062	1092.741821289062	729.4591674804688	36.69467544555664	996.5772094726562	599.4987182617188	35.79671096801758	1117.734375	906.4869995117188	496.4020385742188	1078.140625	862.2425537109375	750.9932250976562	1101.435913085938	730.084228515625	134.4885559082031	1227.283325195312	880.4425048828125	374.0086669921875	1101.481079101562	839.979736328125	48.66238021850586	1111.759399414062	766.1351318359375	69.93785095214844	1111.1025390625	796.5995483398438	86.01995849609375	1206.887084960938	641.3974609375	145.0363159179688	1210.66259765625	
164	1.63	625.2097778320312	976.889404296875	1087.002075195312	553.6138305664062	963.3296508789062	974.7461547851562	589.1927490234375	1052.614013671875	1024.421630859375	797.5103759765625	1198.450073242188	905.1738891601562	586.4597778320312	1151.832275390625	1017.163146972656	611.2947998046875	1401.222534179688	985.4002075195312	751.7195434570312	1319.357543945312	924.749755859375	596.9052124023438	1259.57861328125	1068.818481445312	548.66796875	1364.127563476562	903.3513793945312	604.0841674804688	1377.730712890625	820.5684204101562	541.8484497070312	1264.0576171875	776.0481567382812	540.2879028320312	1069.150024414062	744.4160766601562	517.7025146484375	1044.900146484375	824.4616088867188	704.9691162109375	915.1179809570312	721.5282592773438	645.9117431640625	885.0032348632812	672.5916748046875	575.8136596679688	980.9671020507812	715.3378295898438	779.4616088867188	759.0053100585938	669.0651245117188	695.2857666015625	815.178466796875	657.9038696289062	752.4717407226562	840.56884765625	674.9751586914062	729.1851196289062	1382.722900390625	1102.769897460938	734.077880859375	1324.199951171875	1162.859252929688	716.4385986328125	1070.362670898438	1230.717651367188	671.1087036132812	1057.69873046875	1150.672607421875	794.1707153320312	833.2100830078125	1188.160400390625	777.6447143554688	835.5592651367188	1259.805786132812	738.2855224609375	1004.610168457031	1247.144653320312	765.0079956054688	663.2581176757812	1220.910888671875	798.854736328125	728.0792846679688	1215.347412109375	766.67041015625	749.9136962890625	1272.222412109375	703.2923583984375	1589.9638671875	1036.490600585938	705.4769287109375	1587.397216796875	835.8761596679688	783.0353393554688	1606.218627929688	928.9282836914062	587.8439331054688	1562.12451171875	924.5845336914062	572.6637573242188	941.8150024414062	834.3521118164062	756.4337768554688	963.9180297851562	1140.766967773438	838.895751953125	966.276123046875	1024.8564453125	690.0296020507812	938.6442260742188	809.9215087890625	671.7122802734375	449.8831176757812	905.1317138671875	644.4059448242188	587.8203735351562	871.0931396484375	615.1324462890625	34.24573516845703	1052.6982421875	641.4755859375	223.7144775390625	972.2711181640625	837.8389282226562	38.89261627197266	1038.07080078125	773.7386474609375	42.12493896484375	1092.683227539062	729.4508666992188	36.64067077636719	996.548095703125	599.5783081054688	36.21199035644531	1117.904296875	921.2562255859375	499.2544555664062	1065.134887695312	874.8499145507812	753.6912841796875	1091.706176757812	765.846923828125	126.2043609619141	1210.276733398438	900.6535034179688	375.3118591308594	1086.789306640625	877.0939331054688	49.51409912109375	1089.827880859375	802.0177001953125	66.66535186767578	1091.554565429688	834.3213500976562	81.91176605224609	1186.822631835938	676.119873046875	132.2117462158203	1196.535888671875	
165	1.64	635.5978393554688	977.01416015625	1084.137329101562	561.7061157226562	963.4296875	973.3699340820312	598.1326904296875	1053.122924804688	1022.347473144531	803.955322265625	1198.68603515625	898.1688842773438	594.5956420898438	1152.31689453125	1014.178527832031	619.2366943359375	1401.438232421875	981.2470092773438	758.4935913085938	1319.595092773438	918.5172119140625	605.7222900390625	1259.95849609375	1064.872680664062	555.318359375	1364.427001953125	900.1610107421875	609.458251953125	1378.199829101562	816.5823364257812	546.6527709960938	1264.515014648438	772.6287231445312	545.4855346679688	1070.108764648438	740.3478393554688	524.0609130859375	1044.769653320312	820.4472045898438	715.40576171875	924.1729125976562	713.4178466796875	657.4443359375	892.070556640625	664.6253662109375	583.3615112304688	984.2418212890625	709.8438110351562	796.9075317382812	772.642333984375	657.8768920898438	709.9534301757812	824.7357177734375	648.5411987304688	765.9473266601562	852.682373046875	665.2423706054688	738.6771240234375	1383.020141601562	1096.819702148438	744.1840209960938	1324.84619140625	1156.795043945312	724.642822265625	1071.582763671875	1225.79052734375	678.84326171875	1059.01806640625	1146.06982421875	801.0034790039062	833.84912109375	1183.471557617188	784.4166870117188	836.114990234375	1255.119018554688	746.1441650390625	1005.633666992188	1242.26953125	770.7373657226562	663.9931030273438	1215.63623046875	804.9931640625	728.5990600585938	1210.39111328125	772.8060302734375	750.408203125	1267.298828125	712.585693359375	1589.913818359375	1030.989868164062	712.5843505859375	1587.418823242188	830.310302734375	791.2550048828125	1605.719970703125	922.5399780273438	595.8018188476562	1562.72705078125	920.25244140625	577.8192138671875	941.500244140625	832.7482299804688	767.80224609375	964.746337890625	1134.856079101562	847.634033203125	967.1290283203125	1017.065124511719	694.5208740234375	938.3475341796875	805.2757568359375	672.1160888671875	449.5120544433594	903.5657958984375	646.1139526367188	587.7168579101562	869.2137451171875	615.3333740234375	34.34937286376953	1053.012817382812	641.5667114257812	223.6495666503906	971.763916015625	837.9559326171875	38.82402420043945	1038.00244140625	773.8886108398438	42.20848846435547	1092.623657226562	729.4586791992188	36.60971450805664	996.5503540039062	599.6567993164062	36.64279556274414	1118.1279296875	935.21435546875	501.6388244628906	1052.477172851562	887.0547485351562	755.9061279296875	1081.963134765625	801.4967041015625	117.9445724487305	1191.73486328125	920.1891479492188	376.3988952636719	1072.07080078125	913.3577270507812	50.87357711791992	1066.363159179688	837.3846435546875	63.9111213684082	1070.446533203125	871.5399780273438	77.91831970214844	1165.187133789062	711.101806640625	119.507568359375	1180.752563476562	
166	1.65	646.0140380859375	976.8138427734375	1081.120971679688	569.9131469726562	963.2470703125	971.8856201171875	607.2197265625	1053.313720703125	1020.209899902344	810.4027099609375	1198.567749023438	891.2193603515625	602.62060546875	1152.53955078125	1011.173217773438	627.1834716796875	1401.342407226562	976.9918823242188	765.2763671875	1319.47216796875	912.2633666992188	614.5751342773438	1260.054931640625	1060.876342773438	562.01123046875	1364.385498046875	896.916015625	614.8660278320312	1378.298828125	812.5405883789062	551.4985961914062	1264.578369140625	769.1895141601562	550.5245361328125	1070.693237304688	736.4049682617188	530.3407592773438	1044.268188476562	816.5316162109375	725.2367553710938	933.0463256835938	705.4481201171875	668.3948974609375	898.844970703125	656.9332275390625	590.5884399414062	987.2254028320312	704.47998046875	813.4631958007812	786.365478515625	647.1921997070312	723.9263305664062	834.206787109375	639.4825439453125	778.6060791015625	864.6640014648438	655.803466796875	748.1820678710938	1383.042236328125	1090.758666992188	754.3030395507812	1325.215576171875	1150.6396484375	733.0787963867188	1072.535766601562	1220.78955078125	686.7239990234375	1060.055053710938	1141.45068359375	808.082275390625	834.2590942382812	1178.565795898438	791.5739135742188	836.4429931640625	1250.239013671875	754.3032836914062	1006.400024414062	1237.27001953125	776.7789306640625	664.4891357421875	1210.20068359375	811.43994140625	728.886474609375	1205.2080078125	779.3438720703125	750.6619873046875	1262.202270507812	721.85107421875	1589.50048828125	1025.446533203125	719.6261596679688	1587.157348632812	824.725341796875	799.39453125	1604.934448242188	916.1150512695312	603.7401733398438	1562.960571289062	915.9069213867188	583.0912475585938	941.0003662109375	831.0736083984375	779.1748657226562	965.154052734375	1128.806762695312	856.31787109375	967.5655517578125	1009.231262207031	699.09765625	937.8477172851562	800.6327514648438	672.8853149414062	449.0448608398438	901.907958984375	648.0799560546875	587.4901123046875	867.2380981445312	615.5446166992188	34.45811080932617	1053.391967773438	641.851806640625	223.5169372558594	971.2388916015625	838.1162719726562	38.73079681396484	1037.91552734375	774.0903930664062	42.26784133911133	1092.566528320312	729.4822998046875	36.60750579833984	996.5888671875	599.74853515625	37.06882858276367	1118.418701171875	948.4050903320312	503.5131225585938	1040.240478515625	898.8406982421875	757.5850219726562	1072.243041992188	836.8741455078125	109.8764343261719	1171.671997070312	939.0407104492188	377.2729187011719	1057.390502929688	948.6216430664062	52.84225845336914	1041.49853515625	872.067138671875	61.80669784545898	1047.868896484375	908.1085205078125	74.19783020019531	1142.038696289062	746.1571655273438	107.1085968017578	1163.271606445312	
